<?xml version="1.0" encoding="utf-8"?>
<svg version="1.1" xmlns:xlink="http://www.w3.org/1999/xlink" width="27px" height="23px" xmlns="http://www.w3.org/2000/svg">
  <g transform="matrix(1 0 0 1 -339 -102 )">
    <path d="M 10.638281249999999 10.456430288461538  C 11.430468750000001 9.677784455128204  12.384375 9.288461538461537  13.5 9.288461538461538  C 14.615625000000003 9.288461538461537  15.56953125 9.677784455128204  16.361718749999998 10.456430288461538  C 17.153906250000002 11.23507612179487  17.55 12.172676282051281  17.55 13.269230769230768  C 17.55 14.365785256410255  17.153906250000002 15.303385416666664  16.361718749999998 16.08203125  C 15.56953125 16.860677083333332  14.615625000000003 17.25  13.5 17.25  C 12.384375 17.25  11.430468750000001 16.860677083333332  10.638281249999999 16.08203125  C 9.846093750000001 15.303385416666664  9.45 14.365785256410255  9.45 13.269230769230768  C 9.45 12.172676282051281  9.846093750000001 11.23507612179487  10.638281249999999 10.456430288461538  Z M 20.25 3.5384615384615388  L 23.400000000000002 3.5384615384615388  C 24.393750000000004 3.5384615384615388  25.242187500000004 3.8840144230769225  25.9453125 4.575120192307693  C 26.648437500000004 5.266225961538462  27.000000000000007 6.1001602564102555  27 7.0769230769230775  L 27 19.46153846153846  C 27.000000000000007 20.438301282051285  26.648437500000004 21.272235576923077  25.9453125 21.963341346153847  C 25.242187500000004 22.654447115384617  24.393750000000004 23  23.400000000000002 23  L 3.6 23  C 2.60625 23  1.7578125000000002 22.654447115384617  1.0546875 21.963341346153847  C 0.3515625 21.272235576923077  0 20.438301282051285  0 19.46153846153846  L 0 7.0769230769230775  C 0 6.1001602564102555  0.3515625 5.266225961538462  1.0546875 4.575120192307693  C 1.7578125000000002 3.8840144230769225  2.60625 3.5384615384615388  3.6 3.5384615384615388  L 6.75 3.5384615384615388  L 7.4671875 1.6586538461538454  C 7.6453125 1.2071314102564097  7.9710937500000005 0.8178084935897423  8.444531249999999 0.49068509615384537  C 8.917968750000002 0.163561698717951  9.403125000000001 0  9.899999999999999 0  L 17.099999999999998 0  C 17.596875 0  18.08203125 0.163561698717951  18.55546875 0.49068509615384537  C 19.028906250000002 0.8178084935897423  19.3546875 1.2071314102564097  19.5328125 1.6586538461538454  L 20.25 3.5384615384615388  Z M 9.04921875 17.64393028846154  C 10.282031250000001 18.85566907051282  11.765625000000002 19.46153846153846  13.5 19.46153846153846  C 15.234375000000002 19.46153846153846  16.71796875 18.85566907051282  17.95078125 17.64393028846154  C 19.18359375 16.432191506410255  19.799999999999997 14.973958333333332  19.799999999999997 13.269230769230768  C 19.799999999999997 11.564503205128206  19.18359375 10.106270032051281  17.95078125 8.89453125  C 16.71796875 7.682792467948716  15.234375000000002 7.0769230769230775  13.5 7.0769230769230775  C 11.765625000000002 7.0769230769230775  10.282031250000001 7.682792467948716  9.04921875 8.89453125  C 7.81640625 10.106270032051281  7.2 11.564503205128206  7.2 13.269230769230768  C 7.2 14.973958333333332  7.81640625 16.432191506410255  9.04921875 17.64393028846154  Z " fill-rule="nonzero" fill="#000000" stroke="none" transform="matrix(1 0 0 1 339 102 )" />
  </g>
</svg>