<?xml version="1.0" encoding="utf-8"?>
<svg version="1.1" xmlns:xlink="http://www.w3.org/1999/xlink" width="12px" height="12px" viewBox="483 283  12 12" xmlns="http://www.w3.org/2000/svg">
  <path d="M 489 283  C 492.36 283  495 285.64  495 289  C 495 292.36  492.36 295  489 295  C 485.64 295  483 292.36  483 289  C 483 285.64  485.64 283  489 283  Z " fill-rule="nonzero" fill="#ffffff" stroke="none" />
  <path d="M 489 283.5  C 492.08 283.5  494.5 285.92  494.5 289  C 494.5 292.08  492.08 294.5  489 294.5  C 485.92 294.5  483.5 292.08  483.5 289  C 483.5 285.92  485.92 283.5  489 283.5  Z " stroke-width="1" stroke="#797979" fill="none" />
  <path d="M 489 292  C 487.32 292  486 290.68  486 289  C 486 287.32  487.32 286  489 286  C 490.68 286  492 287.32  492 289  C 492 290.68  490.68 292  489 292  " fill-rule="nonzero" fill="#797979" stroke="none" />
</svg>