<?xml version="1.0" encoding="utf-8"?>
<svg version="1.1" xmlns:xlink="http://www.w3.org/1999/xlink" width="70px" height="22px" xmlns="http://www.w3.org/2000/svg">
  <defs>
    <mask fill="white" id="clip5">
      <path d="M 0 17  L 0 5  C 0 2.20000000000005  2.20000000000005 0  5 0  L 45.8695652173913 0  L 65 0  C 67.8 0  70 2.20000000000005  70 5  L 70 17  C 70 19.8  67.8 22  65 22  L 5 22  C 2.20000000000005 22  0 19.8  0 17  Z " fill-rule="evenodd" />
    </mask>
  </defs>
  <g transform="matrix(1 0 0 1 -1312 -755 )">
    <path d="M 0 17  L 0 5  C 0 2.20000000000005  2.20000000000005 0  5 0  L 45.8695652173913 0  L 65 0  C 67.8 0  70 2.20000000000005  70 5  L 70 17  C 70 19.8  67.8 22  65 22  L 5 22  C 2.20000000000005 22  0 19.8  0 17  Z " fill-rule="nonzero" fill="#f1f2f1" stroke="none" transform="matrix(1 0 0 1 1312 755 )" />
    <path d="M 0 17  L 0 5  C 0 2.20000000000005  2.20000000000005 0  5 0  L 45.8695652173913 0  L 65 0  C 67.8 0  70 2.20000000000005  70 5  L 70 17  C 70 19.8  67.8 22  65 22  L 5 22  C 2.20000000000005 22  0 19.8  0 17  Z " stroke-width="2" stroke="#b2b4b8" fill="none" transform="matrix(1 0 0 1 1312 755 )" mask="url(#clip5)" />
  </g>
</svg>