<?xml version="1.0" encoding="utf-8"?>
<svg version="1.1" xmlns:xlink="http://www.w3.org/1999/xlink" width="7px" height="7px" xmlns="http://www.w3.org/2000/svg">
  <g transform="matrix(1 0 0 1 -554 -110 )">
    <path d="M 6.835016835016835 5.232323232323232  C 6.945005611672278 5.342312008978674  7 5.475869809203141  7 5.632996632996633  C 7 5.790123456790124  6.945005611672278 5.923681257014589  6.835016835016835 6.033670033670034  L 6.033670033670034 6.835016835016835  C 5.923681257014591 6.945005611672278  5.790123456790123 7  5.632996632996633 7  C 5.475869809203143 7  5.342312008978676 6.945005611672278  5.232323232323233 6.835016835016835  L 3.5 5.102693602693603  L 1.7676767676767677 6.835016835016835  C 1.6576879910213247 6.945005611672278  1.5241301907968574 7  1.367003367003367 7  C 1.2098765432098766 7  1.0763187429854097 6.945005611672278  0.9663299663299664 6.835016835016835  L 0.16498316498316498 6.033670033670034  C 0.054994388327721716 5.923681257014589  0 5.790123456790124  0 5.632996632996633  C 0 5.475869809203141  0.054994388327721716 5.342312008978674  0.16498316498316498 5.232323232323232  L 1.8973063973063973 3.5  L 0.16498316498316498 1.7676767676767673  C 0.054994388327721716 1.6576879910213238  0 1.5241301907968574  0 1.367003367003367  C 0 1.2098765432098766  0.054994388327721716 1.0763187429854086  0.16498316498316498 0.9663299663299666  L 0.9663299663299664 0.164983164983165  C 1.0763187429854097 0.05499438832772141  1.2098765432098766 0  1.367003367003367 0  C 1.5241301907968574 0  1.6576879910213247 0.05499438832772141  1.7676767676767677 0.164983164983165  L 3.5 1.8973063973063975  L 5.232323232323233 0.164983164983165  C 5.342312008978676 0.05499438832772141  5.475869809203143 0  5.632996632996633 0  C 5.790123456790123 0  5.923681257014591 0.05499438832772141  6.033670033670034 0.164983164983165  L 6.835016835016835 0.9663299663299666  C 6.945005611672278 1.0763187429854086  7 1.2098765432098766  7 1.367003367003367  C 7 1.5241301907968574  6.945005611672278 1.6576879910213238  6.835016835016835 1.7676767676767673  L 5.102693602693602 3.5  L 6.835016835016835 5.232323232323232  Z " fill-rule="nonzero" fill="#333333" stroke="none" transform="matrix(1 0 0 1 554 110 )" />
  </g>
</svg>