<?xml version="1.0" encoding="utf-8"?>
<svg version="1.1" xmlns:xlink="http://www.w3.org/1999/xlink" width="17px" height="16px" xmlns="http://www.w3.org/2000/svg">
  <g transform="matrix(1 0 0 1 -1172 -103 )">
    <path d="M 10.42578125 9.8125  C 11.321414262820515 8.969551282051281  11.769230769230768 7.955128205128204  11.769230769230768 6.76923076923077  C 11.769230769230768 5.583333333333332  11.321414262820515 4.5689102564102555  10.42578125 3.7259615384615383  C 9.530148237179487 2.8830128205128194  8.452323717948719 2.4615384615384617  7.1923076923076925 2.4615384615384617  C 5.932291666666667 2.4615384615384617  4.854467147435899 2.8830128205128194  3.9588341346153846 3.7259615384615383  C 3.063201121794872 4.5689102564102555  2.6153846153846154 5.583333333333332  2.6153846153846154 6.76923076923077  C 2.6153846153846154 7.955128205128204  3.063201121794872 8.969551282051281  3.9588341346153846 9.8125  C 4.854467147435899 10.655448717948715  5.932291666666667 11.076923076923077  7.1923076923076925 11.076923076923077  C 8.452323717948719 11.076923076923077  9.530148237179487 10.655448717948715  10.42578125 9.8125  Z M 16.621995192307693 13.903846153846153  C 16.873998397435898 14.141025641025642  17 14.42948717948718  17 14.76923076923077  C 17 15.102564102564104  16.87059294871795 15.391025641025642  16.611778846153847 15.634615384615385  C 16.352964743589745 15.878205128205128  16.04647435897436 16  15.692307692307693 16  C 15.324519230769232 16  15.018028846153847 15.878205128205128  14.772836538461538 15.634615384615385  L 11.268629807692307 12.346153846153847  C 10.049479166666668 13.141025641025642  8.69070512820513 13.538461538461538  7.1923076923076925 13.538461538461538  C 6.2183493589743595 13.538461538461538  5.286959134615384 13.360576923076923  4.398137019230769 13.004807692307693  C 3.5093149038461537 12.649038461538462  2.743088942307692 12.16826923076923  2.0994591346153846 11.5625  C 1.4558293269230769 10.95673076923077  0.9450120192307694 10.235576923076923  0.5670072115384616 9.399038461538462  C 0.18900240384615385 8.5625  0 7.685897435897434  0 6.76923076923077  C 0 5.8525641025641  0.18900240384615385 4.975961538461538  0.5670072115384616 4.139423076923077  C 0.9450120192307694 3.302884615384615  1.4558293269230769 2.58173076923077  2.0994591346153846 1.9759615384615383  C 2.743088942307692 1.3701923076923084  3.5093149038461537 0.8894230769230766  4.398137019230769 0.5336538461538467  C 5.286959134615384 0.17788461538461497  6.2183493589743595 0  7.1923076923076925 0  C 8.166266025641026 0  9.09765625 0.17788461538461497  9.986478365384615 0.5336538461538467  C 10.875300480769232 0.8894230769230766  11.641526442307693 1.3701923076923084  12.28515625 1.9759615384615383  C 12.928786057692307 2.58173076923077  13.439603365384615 3.302884615384615  13.817608173076922 4.139423076923077  C 14.195612980769232 4.975961538461538  14.384615384615385 5.8525641025641  14.384615384615385 6.76923076923077  C 14.384615384615385 8.179487179487179  13.962339743589745 9.458333333333332  13.117788461538462 10.60576923076923  L 16.621995192307693 13.903846153846153  Z " fill-rule="nonzero" fill="#fafafa" stroke="none" transform="matrix(1 0 0 1 1172 103 )" />
  </g>
</svg>