<?xml version="1.0" encoding="utf-8"?>
<svg version="1.1" xmlns:xlink="http://www.w3.org/1999/xlink" width="41px" height="30px" xmlns="http://www.w3.org/2000/svg">
  <g transform="matrix(1 0 0 1 -304 -766 )">
    <path d="M 39.7941176470588 19  L 32.5588235294118 7.5  L 25.3235294117647 19  L 39.7941176470588 19  Z M 15.6764705882353 19  L 8.44117647058824 7.5  L 1.20588235294118 19  L 15.6764705882353 19  Z M 33.1617647058824 4.28571428571429  L 23.9103860294118 4.28571428571429  C 23.7345281862745 4.73214285714285  23.4487591911765 5.13113839285714  23.0530790441176 5.48270089285714  C 22.6573988970588 5.83426339285714  22.2083333333333 6.08816964285714  21 6.24441964285714  L 21 27.8571428571429  L 33.1617647058824 27.8571428571429  C 33.3376225490196 27.8571428571429  33.4820772058824 27.9073660714286  33.5951286764706 28.0078125  C 33.7081801470588 28.1082589285714  33.7647058823529 28.2366071428571  33.7647058823529 28.3928571428571  L 33.7647058823529 29.4642857142857  C 33.7647058823529 29.6205357142857  33.7081801470588 29.7488839285714  33.5951286764706 29.8493303571429  C 33.4820772058824 29.9497767857143  33.3376225490196 30  33.1617647058824 30  L 7.83823529411765 30  C 7.66237745098039 30  7.51792279411765 29.9497767857143  7.40487132352941 29.8493303571429  C 7.29181985294118 29.7488839285714  7.23529411764706 29.6205357142857  7.23529411764706 29.4642857142857  L 7.23529411764706 28.3928571428571  C 7.23529411764706 28.2366071428571  7.29181985294118 28.1082589285714  7.40487132352941 28.0078125  C 7.51792279411765 27.9073660714286  7.66237745098039 27.8571428571429  7.83823529411765 27.8571428571429  L 20 27.8571428571429  L 20 6.24441964285714  C 18.7916666666667 6.08816964285714  18.3426011029412 5.83426339285714  17.9469209558824 5.48270089285714  C 17.5512408088235 5.13113839285714  17.2654718137255 4.73214285714285  17.0896139705882 4.28571428571429  L 7.83823529411765 4.28571428571429  C 7.66237745098039 4.28571428571429  7.51792279411765 4.23549107142857  7.40487132352941 4.13504464285714  C 7.29181985294118 4.03459821428571  7.23529411764706 3.90625  7.23529411764706 3.75  L 7.23529411764706 2.67857142857143  C 7.23529411764706 2.52232142857142  7.29181985294118 2.39397321428571  7.40487132352941 2.29352678571429  C 7.51792279411765 2.19308035714286  7.66237745098039 2.14285714285714  7.83823529411765 2.14285714285714  L 17.0896139705882 2.14285714285714  C 17.3534007352941 1.50669642857143  17.7930453431373 0.990513392857141  18.4085477941176 0.594308035714287  C 19.024050245098 0.19810267857143  19.7212009803922 0  20.5 0  C 21.2787990196078 0  21.975949754902 0.19810267857143  22.5914522058824 0.594308035714287  C 23.2069546568627 0.990513392857141  23.6465992647059 1.50669642857143  23.9103860294118 2.14285714285714  L 33.1617647058824 2.14285714285714  C 33.3376225490196 2.14285714285714  33.4820772058824 2.19308035714286  33.5951286764706 2.29352678571429  C 33.7081801470588 2.39397321428571  33.7647058823529 2.52232142857142  33.7647058823529 2.67857142857143  L 33.7647058823529 3.75  C 33.7647058823529 3.90625  33.7081801470588 4.03459821428571  33.5951286764706 4.13504464285714  C 33.4820772058824 4.23549107142857  33.3376225490196 4.28571428571429  33.1617647058824 4.28571428571429  Z M 19.4354319852941 4.16015625  C 19.7306219362745 4.42243303571428  20.0854779411765 4.55357142857143  20.5 4.55357142857143  C 20.9145220588235 4.55357142857143  21.2693780637255 4.42243303571428  21.5645680147059 4.16015625  C 21.8597579656863 3.89787946428571  22.0073529411765 3.58258928571429  22.0073529411765 3.21428571428571  C 22.0073529411765 2.84598214285714  21.8597579656863 2.53069196428571  21.5645680147059 2.26841517857143  C 21.2693780637255 2.00613839285714  20.9145220588235 1.875  20.5 1.875  C 20.0854779411765 1.875  19.7306219362745 2.00613839285714  19.4354319852941 2.26841517857143  C 19.1402420343137 2.53069196428571  18.9926470588235 2.84598214285714  18.9926470588235 3.21428571428571  C 18.9926470588235 3.58258928571429  19.1402420343137 3.89787946428571  19.4354319852941 4.16015625  Z M 40.3405330882353 17.9296875  C 40.7801776960784 18.7109375  41 19.1629464285714  41 19.2857142857143  C 41 20.1004464285714  40.7079503676471 20.8314732142857  40.1238511029412 21.4787946428571  C 39.5397518382353 22.1261160714286  38.8017769607843 22.6339285714286  37.9099264705882 23.0022321428571  C 37.0180759803922 23.3705357142857  36.1105238970588 23.6467633928571  35.1872702205882 23.8309151785714  C 34.2640165441177 24.0150669642857  33.3878676470588 24.1071428571429  32.5588235294118 24.1071428571429  C 31.7297794117647 24.1071428571429  30.8536305147059 24.0150669642857  29.9303768382353 23.8309151785714  C 29.0071231617647 23.6467633928571  28.0995710784314 23.3705357142857  27.2077205882353 23.0022321428571  C 26.3158700980392 22.6339285714286  25.5778952205882 22.1261160714286  24.9937959558824 21.4787946428571  C 24.4096966911765 20.8314732142857  24.1176470588235 20.1004464285714  24.1176470588235 19.2857142857143  C 24.1176470588235 19.1629464285714  24.3374693627451 18.7109375  24.7771139705882 17.9296875  C 25.2167585784314 17.1484375  25.7945772058824 16.1746651785714  26.5105698529412 15.0083705357143  C 27.2265625 13.8420758928571  27.8985906862745 12.7511160714286  28.5266544117647 11.7354910714286  C 29.1547181372549 10.7198660714286  29.7953431372549 9.69308035714286  30.4485294117647 8.65513392857143  C 31.1017156862745 7.6171875  31.453431372549 7.05915178571428  31.5036764705882 6.98102678571429  C 31.7297794117647 6.61272321428571  32.0814950980392 6.42857142857143  32.5588235294118 6.42857142857143  C 33.0361519607843 6.42857142857143  33.3878676470588 6.61272321428571  33.6139705882353 6.98102678571429  C 33.6642156862745 7.05915178571428  34.015931372549 7.6171875  34.6691176470588 8.65513392857143  C 35.3223039215686 9.69308035714286  35.9629289215686 10.7198660714286  36.5909926470588 11.7354910714286  C 37.219056372549 12.7511160714286  37.8910845588235 13.8420758928571  38.6070772058824 15.0083705357143  C 39.3230698529412 16.1746651785714  39.9008884803922 17.1484375  40.3405330882353 17.9296875  Z M 16.2228860294118 17.9296875  C 16.6625306372549 18.7109375  16.8823529411765 19.1629464285714  16.8823529411765 19.2857142857143  C 16.8823529411765 20.1004464285714  16.5903033088235 20.8314732142857  16.0062040441176 21.4787946428571  C 15.4221047794118 22.1261160714286  14.6841299019608 22.6339285714286  13.7922794117647 23.0022321428571  C 12.9004289215686 23.3705357142857  11.9928768382353 23.6467633928571  11.0696231617647 23.8309151785714  C 10.1463694852941 24.0150669642857  9.27022058823529 24.1071428571429  8.44117647058824 24.1071428571429  C 7.61213235294118 24.1071428571429  6.73598345588235 24.0150669642857  5.81272977941177 23.8309151785714  C 4.88947610294118 23.6467633928571  3.98192401960784 23.3705357142857  3.09007352941176 23.0022321428571  C 2.19822303921569 22.6339285714286  1.46024816176471 22.1261160714286  0.876148897058824 21.4787946428571  C 0.292049632352941 20.8314732142857  0 20.1004464285714  0 19.2857142857143  C 0 19.1629464285714  0.219822303921569 18.7109375  0.659466911764706 17.9296875  C 1.09911151960784 17.1484375  1.67693014705882 16.1746651785714  2.39292279411765 15.0083705357143  C 3.10891544117647 13.8420758928571  3.78094362745098 12.7511160714286  4.40900735294118 11.7354910714286  C 5.03707107843137 10.7198660714286  5.67769607843137 9.69308035714286  6.33088235294118 8.65513392857143  C 6.98406862745098 7.6171875  7.33578431372549 7.05915178571428  7.38602941176471 6.98102678571429  C 7.61213235294118 6.61272321428571  7.96384803921569 6.42857142857143  8.44117647058824 6.42857142857143  C 8.91850490196078 6.42857142857143  9.2702205882353 6.61272321428571  9.49632352941176 6.98102678571429  C 9.54656862745098 7.05915178571428  9.89828431372549 7.6171875  10.5514705882353 8.65513392857143  C 11.2046568627451 9.69308035714286  11.8452818627451 10.7198660714286  12.4733455882353 11.7354910714286  C 13.1014093137255 12.7511160714286  13.7734375 13.8420758928571  14.4894301470588 15.0083705357143  C 15.2054227941176 16.1746651785714  15.7832414215686 17.1484375  16.2228860294118 17.9296875  Z " fill-rule="nonzero" fill="#8a8282" stroke="none" transform="matrix(1 0 0 1 304 766 )" />
  </g>
</svg>