<?xml version="1.0" encoding="utf-8"?>
<svg version="1.1" xmlns:xlink="http://www.w3.org/1999/xlink" width="37px" height="30px" xmlns="http://www.w3.org/2000/svg">
  <g transform="matrix(1 0 0 1 -218 -767 )">
    <path d="M 7.82275390625 20.11875  C 8.38883463541667 19.53125  8.671875 18.825  8.671875 18  C 8.671875 17.175  8.38883463541667 16.46875  7.82275390625 15.88125  C 7.25667317708333 15.29375  6.576171875 15  5.78125 15  C 4.986328125 15  4.30582682291667 15.29375  3.73974609375 15.88125  C 3.17366536458333 16.46875  2.890625 17.175  2.890625 18  C 2.890625 18.825  3.17366536458333 19.53125  3.73974609375 20.11875  C 4.30582682291667 20.70625  4.986328125 21  5.78125 21  C 6.576171875 21  7.25667317708333 20.70625  7.82275390625 20.11875  Z M 10.93017578125 5.30625  L 9.322265625 12  L 27.677734375 12  L 26.06982421875 5.30625  C 26.0457356770833 5.20625  25.96142578125 5.096875  25.81689453125 4.978125  C 25.67236328125 4.859375  25.5458984375 4.8  25.4375 5  L 11.5625 5  C 11.4541015625 4.8  11.32763671875 4.859375  11.18310546875 4.978125  C 11.03857421875 5.096875  10.9542643229167 5.20625  10.93017578125 5.30625  Z M 33.26025390625 20.11875  C 33.8263346354167 19.53125  34.109375 18.825  34.109375 18  C 34.109375 17.175  33.8263346354167 16.46875  33.26025390625 15.88125  C 32.6941731770833 15.29375  32.013671875 15  31.21875 15  C 30.423828125 15  29.7433268229167 15.29375  29.17724609375 15.88125  C 28.6111653645833 16.46875  28.328125 17.175  28.328125 18  C 28.328125 18.825  28.6111653645833 19.53125  29.17724609375 20.11875  C 29.7433268229167 20.70625  30.423828125 21  31.21875 21  C 32.013671875 21  32.6941731770833 20.70625  33.26025390625 20.11875  Z M 35.816650390625 13.228125  C 36.6055501302083 14.046875  37 15.0375  37 16.2  L 37 23.4  C 37 23.575  36.94580078125 23.71875  36.83740234375 23.83125  C 36.72900390625 23.94375  36.5904947916667 24  36.421875 24  L 34.6875 24  L 34.6875 26.4  C 34.6875 27.4  34.3502604166667 28.25  33.67578125 28.95  C 33.0013020833333 29.65  32.1822916666667 30  31.21875 30  C 30.2552083333333 30  29.4361979166667 29.65  28.76171875 28.95  C 28.0872395833333 28.25  27.75 27.4  27.75 26.4  L 27.75 24  L 9.25 24  L 9.25 26.4  C 9.25 27.4  8.91276041666667 28.25  8.23828125 28.95  C 7.56380208333333 29.65  6.74479166666667 30  5.78125 30  C 4.81770833333333 30  3.99869791666667 29.65  3.32421875 28.95  C 2.64973958333333 28.25  2.3125 27.4  2.3125 26.4  L 2.3125 24  L 0.578125 24  C 0.409505208333333 24  0.27099609375 23.94375  0.16259765625 23.83125  C 0.05419921875 23.71875  0 23.575  0 23.4  L 0 16.2  C 0 15.0375  0.394449869791667 14.046875  1.183349609375 13.228125  C 1.97224934895833 12.409375  2.9267578125 12  4.046875 12  L 4.552734375 12  L 6.44970703125 4.14375  C 6.72672526041667 2.96875  7.35302734375 1.984375  8.32861328125 1.190625  C 9.30419921875 0.396874999999999  10.3821614583333 0  11.5625 0  L 25.4375 0  C 26.6178385416667 0  27.69580078125 0.396874999999999  28.67138671875 1.190625  C 29.64697265625 1.984375  30.2732747395833 2.96875  30.55029296875 4.14375  L 32.447265625 12  L 32.953125 12  C 34.0732421875 12  35.0277506510417 12.409375  35.816650390625 13.228125  Z " fill-rule="nonzero" fill="#8a8282" stroke="none" transform="matrix(1 0 0 1 218 767 )" />
  </g>
</svg>