<?xml version="1.0" encoding="utf-8"?>
<svg version="1.1" xmlns:xlink="http://www.w3.org/1999/xlink" width="33px" height="30px" xmlns="http://www.w3.org/2000/svg">
  <g transform="matrix(1 0 0 1 -138 -767 )">
    <path d="M 22.9849759615385 22.7594866071429  C 23.5402644230769 22.2181919642857  23.8179086538462 21.5401785714286  23.8179086538462 20.7254464285714  C 23.8179086538462 20.0892857142857  23.7815504807692 19.4921875  23.7088341346154 18.9341517857143  C 23.6361177884615 18.3761160714286  23.4972956730769 17.8152901785714  23.2923677884615 17.2516741071429  C 23.0874399038462 16.6880580357143  22.8263221153846 16.2081473214286  22.5090144230769 15.8119419642857  C 22.1917067307692 15.4157366071429  21.7686298076923 15.0920758928571  21.2397836538462 14.8409598214286  C 20.7109375 14.58984375  20.109375 14.4642857142857  19.4350961538462 14.4642857142857  C 19.3557692307692 14.5089285714286  19.1343149038462 14.6233258928571  18.7707331730769 14.8074776785714  C 18.4071514423077 14.9916294642857  18.1262019230769 15.1283482142857  17.9278846153846 15.2176339285714  C 17.7295673076923 15.3069196428571  17.4618389423077 15.4185267857143  17.1246995192308 15.5524553571429  C 16.7875600961538 15.6863839285714  16.4636418269231 15.78125  16.1529447115385 15.8370535714286  C 15.8422475961538 15.8928571428571  15.5348557692308 15.9207589285714  15.2307692307692 15.9207589285714  C 14.9266826923077 15.9207589285714  14.6192908653846 15.8928571428571  14.30859375 15.8370535714286  C 13.9978966346154 15.78125  13.6739783653846 15.6863839285714  13.3368389423077 15.5524553571429  C 12.9996995192308 15.4185267857143  12.7319711538462 15.3069196428571  12.5336538461538 15.2176339285714  C 12.3353365384615 15.1283482142857  12.0543870192308 14.9916294642857  11.6908052884615 14.8074776785714  C 11.3272235576923 14.6233258928571  11.1057692307692 14.5089285714286  11.0264423076923 14.4642857142857  C 10.3521634615385 14.4642857142857  9.75060096153846 14.58984375  9.22175480769231 14.8409598214286  C 8.69290865384616 15.0920758928571  8.26983173076923 15.4157366071429  7.95252403846154 15.8119419642857  C 7.63521634615385 16.2081473214286  7.37409855769231 16.6880580357143  7.16917067307692 17.2516741071429  C 6.96424278846154 17.8152901785714  6.82542067307692 18.3761160714286  6.75270432692308 18.9341517857143  C 6.67998798076923 19.4921875  6.64362980769231 20.0892857142857  6.64362980769231 20.7254464285714  C 6.64362980769231 21.5401785714286  6.92127403846154 22.2181919642857  7.4765625 22.7594866071429  C 8.03185096153846 23.30078125  8.71274038461539 23.5714285714286  9.51923076923077 23  L 20.9423076923077 23  C 21.7487980769231 23.5714285714286  22.4296875 23.30078125  22.9849759615385 22.7594866071429  Z M 18.8698918269231 13.8448660714286  C 19.8813100961538 12.9966517857143  20.3870192307692 11.9754464285714  20.3870192307692 10.78125  C 20.3870192307692 9.57589285714286  19.8813100961538 8.54910714285714  18.8698918269231 7.70089285714286  C 17.8584735576923 6.85267857142857  16.6454326923077 6.42857142857143  15.2307692307692 6.42857142857143  C 13.8161057692308 6.42857142857143  12.6030649038462 6.85267857142857  11.5916466346154 7.70089285714286  C 10.5802283653846 8.54910714285714  10.0745192307692 9.57589285714286  10.0745192307692 10.78125  C 10.0745192307692 11.9754464285714  10.5802283653846 12.9966517857143  11.5916466346154 13.8448660714286  C 12.6030649038462 14.6930803571429  13.8161057692308 15.1171875  15.2307692307692 15.1171875  C 16.6454326923077 15.1171875  17.8584735576923 14.6930803571429  18.8698918269231 13.8448660714286  Z M 32.8215144230769 19.4363839285714  C 32.9405048076923 19.5368303571429  33 19.6651785714286  33 19.8214285714286  L 33 23.0357142857143  C 33 23.1919642857143  32.9405048076923 23.3203125  32.8215144230769 23.4207589285714  C 32.7025240384615 23.5212053571429  32.5504807692308 23.5714285714286  32.3653846153846 23.5714285714286  L 30.4615384615385 23.5714285714286  L 30.4615384615385 27.3214285714286  C 30.4615384615385 28.0580357142857  30.1508413461538 28.6886160714286  29.5294471153846 29.2131696428571  C 28.9080528846154 29.7377232142857  28.1610576923077 30  27.2884615384615 30  L 3.17307692307692 30  C 2.30048076923077 30  1.55348557692308 29.7377232142857  0.932091346153846 29.2131696428571  C 0.310697115384615 28.6886160714286  0 28.0580357142857  0 27.3214285714286  L 0 2.67857142857143  C 0 1.94196428571429  0.310697115384615 1.31138392857143  0.932091346153846 0.786830357142858  C 1.55348557692308 0.262276785714286  2.30048076923077 0  3.17307692307692 0  L 27.2884615384615 0  C 28.1610576923077 0  28.9080528846154 0.262276785714286  29.5294471153846 0.786830357142858  C 30.1508413461538 1.31138392857143  30.4615384615385 1.94196428571429  30.4615384615385 2.67857142857143  L 30.4615384615385 6.42857142857143  L 32.3653846153846 6.42857142857143  C 32.5504807692308 6.42857142857143  32.7025240384615 6.47879464285714  32.8215144230769 6.57924107142857  C 32.9405048076923 6.6796875  33 6.80803571428571  33 6.96428571428571  L 33 10.1785714285714  C 33 10.3348214285714  32.9405048076923 10.4631696428571  32.8215144230769 10.5636160714286  C 32.7025240384615 10.6640625  32.5504807692308 10.7142857142857  32.3653846153846 10.7142857142857  L 30.4615384615385 10.7142857142857  L 30.4615384615385 12.8571428571429  L 32.3653846153846 12.8571428571429  C 32.5504807692308 12.8571428571429  32.7025240384615 12.9073660714286  32.8215144230769 13.0078125  C 32.9405048076923 13.1082589285714  33 13.2366071428571  33 13.3928571428571  L 33 16.6071428571429  C 33 16.7633928571429  32.9405048076923 16.8917410714286  32.8215144230769 16.9921875  C 32.7025240384615 17.0926339285714  32.5504807692308 17.1428571428571  32.3653846153846 17.1428571428571  L 30.4615384615385 17.1428571428571  L 30.4615384615385 19.2857142857143  L 32.3653846153846 19.2857142857143  C 32.5504807692308 19.2857142857143  32.7025240384615 19.3359375  32.8215144230769 19.4363839285714  Z " fill-rule="nonzero" fill="#8a8282" stroke="none" transform="matrix(1 0 0 1 138 767 )" />
  </g>
</svg>