<?xml version="1.0" encoding="utf-8"?>
<svg version="1.1" xmlns:xlink="http://www.w3.org/1999/xlink" width="38px" height="30px" xmlns="http://www.w3.org/2000/svg">
  <g transform="matrix(1 0 0 1 -390 -766 )">
    <path d="M 3.16666666666667 0  L 34.8333333333333 0  C 35.7041666666667 0  36.4496527777778 0.30598958333333  37.0697916666667 0.917968750000001  C 37.6899305555556 1.52994791666667  38 2.265625  38 3.125  L 38 26.875  C 38 27.734375  37.6899305555556 28.4700520833333  37.0697916666667 29.08203125  C 36.4496527777778 29.6940104166667  35.7041666666667 30  34.8333333333333 30  L 3.16666666666667 30  C 2.29583333333333 30  1.55034722222222 29.6940104166667  0.930208333333333 29.08203125  C 0.310069444444444 28.4700520833333  0 27.734375  0 26.875  L 0 3.125  C 0 2.265625  0.310069444444444 1.52994791666667  0.930208333333333 0.917968750000001  C 1.55034722222222 0.30598958333333  2.29583333333333 0  3.16666666666667 0  Z M 34.8333333333333 3  L 3.16666666666667 3  C 2.99513888888889 2.5  2.84670138888889 2.56184895833333  2.72135416666667 2.685546875  C 2.59600694444444 2.80924479166666  2.53333333333333 2.95572916666666  2.53333333333333 3.125  L 2.53333333333333 8  L 35.4666666666667 8  L 35.4666666666667 3.125  C 35.4666666666667 2.95572916666666  35.4039930555556 2.80924479166666  35.2786458333333 2.685546875  C 35.1532986111111 2.56184895833333  35.0048611111111 2.5  34.8333333333333 3  Z M 3.16666666666667 27  L 34.8333333333333 27  C 35.0048611111111 27.5  35.1532986111111 27.4381510416667  35.2786458333333 27.314453125  C 35.4039930555556 27.1907552083333  35.4666666666667 27.0442708333333  35 26.875  L 35 15  L 3 15  L 3 26.875  C 2.53333333333333 27.0442708333333  2.59600694444444 27.1907552083333  2.72135416666667 27.314453125  C 2.84670138888889 27.4381510416667  2.99513888888889 27.5  3.16666666666667 27  Z M 10.1333333333333 25  L 5.06666666666667 25  L 5.06666666666667 22.5  L 10.1333333333333 22.5  L 10.1333333333333 25  Z M 20.2666666666667 25  L 12.6666666666667 25  L 12.6666666666667 22.5  L 20.2666666666667 22.5  L 20.2666666666667 25  Z " fill-rule="nonzero" fill="#8a8282" stroke="none" transform="matrix(1 0 0 1 390 766 )" />
  </g>
</svg>